<svg version="1.1" x="0px" y="0px" viewBox="0 0 250 250" xmlns="http://www.w3.org/2000/svg">
  <defs></defs>
  <style type="text/css">
  .blue {fill: #4284F3;}
  .yellow {fill: #F1BE42;}
  .green {fill: #58A55C;}
  .red {fill: #D85140;}
  .pink {fill: #F062A7;}
</style>
  <g id="logomark" transform="matrix(1.149813, 0, 0, 1.149813, -43.621143, -180.464828)" style="">
    <title>logomark</title>
    <g>
      <title>blue</title>
      <path class="blue" d="M 130.03 336.72 L 127.38 350.11 C 126.65 353.81 116.39 351.4 117.04 348.1 L 119.11 337.63 C 116.79 337.78 114.47 337.89 112.14 337.95 L 114.22 355.24 C 114.38 356.51 114.51 356.76 114.55 356.8 C 114.78 357.06 116.04 357.56 116.51 357.75 C 122.11 359.95 132.01 361.22 143.68 361.22 C 147.46 361.22 151.26 361.09 154.74 360.84 C 156.32 360.72 157.84 360.59 159.26 360.43 C 169.58 359.26 173.11 357.41 173.71 356.71 L 176.66 332.19 C 161.12 332.75 145.57 335.17 130.03 336.72 Z">
        <title>Path</title>
      </path>
    </g>
    <g>
      <title>yellow</title>
      <path class="yellow" d="M149.7,237.45l-6.56,33.12c1.41-0.17,2.83-0.33,4.24-0.5c0.9-0.1,1.79-0.21,2.69-0.31
        c2.31-0.27,4.62-0.54,6.93-0.78c1.44-0.15,2.87-0.3,4.31-0.43c0.6-0.06,1.2-0.12,1.8-0.17c0.84-0.08,1.67-0.15,2.5-0.22
        c2.11-0.17,4.22-0.33,6.33-0.45c0.55-0.04,1.09-0.07,1.64-0.09c0.79-0.05,1.59-0.08,2.38-0.11c1.54-0.06,3.08-0.11,4.62-0.13
        c1.3-0.02,2.6-0.02,3.89-0.01l3.89-32.27C175.47,234.65,162.59,235.96,149.7,237.45z"></path>
      <path class="yellow" d="M100.43,240.85l3.92,32.47c1.72,0.03,3.43,0.03,5.15,0c0.46-0.01,0.92-0.02,1.37-0.03
        c0.65-0.01,1.3-0.03,1.95-0.06c0.18,0,0.37-0.01,0.55-0.02c0.29-0.01,0.58-0.02,0.87-0.03c0.57-0.02,1.15-0.05,1.73-0.08
        c0.13,0,0.26-0.01,0.39-0.02h0.06c1.03-0.05,2.06-0.11,3.1-0.18c1.58-0.1,3.15-0.22,4.73-0.35c0.89-0.08,1.78-0.15,2.67-0.23
        c0.04,0,0.08-0.01,0.12-0.01c0.05,0,0.1-0.01,0.15-0.01c0.6-0.06,1.2-0.12,1.8-0.18c1.05-0.1,2.11-0.21,3.16-0.32l6.55-33.07
        C125.95,240.19,113.19,241.4,100.43,240.85z"></path>
    </g>
    <g class="green">
      <title>green</title>
      <path d="M178.35,299.78c-0.57,0.01-1.15,0.03-1.72,0.06c-0.6,0.01-1.2,0.04-1.8,0.07c-0.84,0.03-1.67,0.08-2.51,0.13 c-0.92,0.05-1.83,0.11-2.75,0.17c-1.84,0.12-3.68,0.27-5.52,0.43c-0.91,0.09-1.82,0.17-2.73,0.26c-1.05,0.09-2.1,0.2-3.15,0.31 c-1.21,0.13-2.43,0.26-3.64,0.39c-0.18,0.02-0.36,0.04-0.55,0.06l-1.83,0.21c-0.8,0.09-1.59,0.18-2.39,0.27 c-1.59,0.18-3.18,0.37-4.76,0.56c-0.98,0.11-1.95,0.23-2.92,0.34c-1.41,0.16-2.82,0.33-4.23,0.49c-0.42,0.04-0.85,0.09-1.27,0.14 l-6.06,30.6l-0.49,2.45c15.54-1.55,31.09-3.97,46.63-4.53l0.29-2.41l3.62-30.05C179.83,299.74,179.09,299.76,178.35,299.78z"></path>
      <path d="M116.42,305.43c-2.73,0.14-5.45,0.23-8.17,0.25l3.6,29.88l0.29,2.39c2.33-0.06,4.65-0.17,6.97-0.32 l0.19-0.93l0.29-1.5h0.01l6.02-30.41c-2.36,0.2-4.73,0.38-7.09,0.52C117.83,305.36,117.12,305.4,116.42,305.43z"></path>
    </g>
    <g class="red">
      <title>red</title>
      <path d="M180.58,267.38c-1.54,0.02-3.08,0.07-4.62,0.13c-0.79,0.03-1.59,0.06-2.38,0.11 c-0.55,0.02-1.09,0.05-1.64,0.09c-2.11,0.12-4.22,0.28-6.33,0.45c-0.83,0.07-1.66,0.14-2.5,0.22c-0.6,0.05-1.2,0.11-1.8,0.17 c-1.44,0.13-2.87,0.28-4.31,0.43c-2.31,0.24-4.62,0.51-6.93,0.78c-0.9,0.1-1.79,0.21-2.69,0.31c-1.41,0.17-2.83,0.33-4.24,0.5 l-6.56,33.1c0.42-0.05,0.85-0.1,1.27-0.14c1.41-0.16,2.82-0.33,4.23-0.49c0.97-0.11,1.94-0.23,2.92-0.34 c1.58-0.19,3.17-0.38,4.76-0.56c0.8-0.09,1.59-0.18,2.39-0.27l1.83-0.21c0.19-0.02,0.37-0.04,0.55-0.06 c1.21-0.13,2.43-0.26,3.64-0.39c1.05-0.11,2.1-0.22,3.15-0.31c0.91-0.09,1.82-0.17,2.73-0.26c1.84-0.16,3.68-0.31,5.52-0.43 c0.92-0.06,1.83-0.12,2.75-0.17c0.84-0.05,1.67-0.1,2.51-0.13c0.6-0.03,1.2-0.06,1.8-0.07c0.57-0.03,1.15-0.05,1.72-0.06 c0.74-0.02,1.48-0.04,2.22-0.05l3.9-32.36C183.18,267.36,181.88,267.36,180.58,267.38z"></path>
      <path d="M127.19,272.3c-0.05,0-0.1,0.01-0.15,0.01c-0.04,0-0.08,0.01-0.12,0.01c-0.89,0.08-1.78,0.15-2.67,0.23 c-1.58,0.13-3.15,0.25-4.73,0.35c-1.04,0.07-2.07,0.13-3.1,0.18h-0.06c-0.13,0.01-0.26,0.02-0.39,0.02 c-0.58,0.03-1.16,0.06-1.73,0.08c-0.29,0.01-0.58,0.02-0.87,0.03c-0.18,0.01-0.37,0.02-0.55,0.02c-0.65,0.03-1.3,0.05-1.95,0.06 c-0.45,0.01-0.91,0.02-1.37,0.03c-1.72,0.03-3.43,0.03-5.15,0l3.9,32.36c2.72-0.02,5.44-0.11,8.17-0.25 c0.7-0.03,1.41-0.07,2.11-0.12c2.36-0.14,4.73-0.32,7.09-0.52l6.53-32.99c-1.05,0.11-2.11,0.22-3.16,0.32 C128.39,272.18,127.79,272.24,127.19,272.3z"></path>
    </g>
    <path class="pink" d="M 194.72 211.5 L 192.34 211.5 L 154.75 211.5 L 155.3 208.92 L 160.69 183.34 L 220.01 171.1 L 217.99 161.3 L 151.79 174.96 L 151 178.68 C 150.87 178.99 150.77 179.35 150.68 179.78 L 144.55 208.92 L 144 211.5 L 95.78 211.5 L 93.4 211.5 C 91.59 211.5 90.12 212.97 90.12 214.78 L 90.12 221.72 C 90.12 223.04 90.91 224.18 92.04 224.69 C 92.3 224.87 92.59 225.03 92.9 225.15 C 93.75 225.48 93.61 225.12 93.73 226.09 L 109.4 356.12 C 109.8 359.47 110.83 360.46 114.34 362.01 C 125.07 366.75 147.64 366.65 159.81 365.28 C 170.02 364.13 177.86 361.61 178.52 357.61 L 194.29 226.82 C 194.45 225.52 194.4 225.43 194.72 225.33 L 194.73 225.33 C 196.54 225.33 198 223.87 198 222.06 L 198 214.78 C 198 212.97 196.53 211.5 194.72 211.5 Z M 191.8 227.43 L 176.16 357.27 C 175.65 359.98 168.68 361.88 159.54 362.91 C 158.12 363.07 156.57 363.21 154.92 363.32 C 142.7 364.2 125.06 363.81 115.59 360.07 C 112.58 358.88 112.09 358.43 111.74 355.54 L 96.16 226.29 C 96.14 226.15 96.13 226.03 96.11 225.93 C 96.09 225.73 96.08 225.61 96.1 225.54 C 96.15 225.38 96.38 225.45 97.03 225.45 L 140.4 225.45 C 140.69 225.45 140.89 225.44 141.03 225.44 C 141.41 225.44 141.31 225.54 141.16 226.3 L 138.7 238.73 L 132.15 271.8 L 125.62 304.79 L 119.6 335.2 L 119.59 335.2 L 119.3 336.7 L 119.11 337.63 L 117.04 348.1 C 116.39 351.4 126.65 353.81 127.38 350.11 L 130.03 336.72 L 130.52 334.27 L 136.58 303.67 L 143.14 270.57 L 149.7 237.45 L 151.87 226.48 C 152.1 225.33 151.84 225.45 152.97 225.45 L 190.51 225.45 C 192.32 225.45 192.02 225.66 191.8 227.43 Z M 195.5 216.71 L 195.5 217.1 L 195.5 218.31 L 195.5 221.7 L 195.5 222.06 C 195.5 222.33 195.36 222.57 195.14 222.71 C 195.02 222.79 194.88 222.83 194.73 222.83 L 194.54 222.83 L 93.39 222.48 C 93.25 222.48 93.11 222.44 93 222.37 C 92.77 222.24 92.62 222 92.62 221.72 L 92.62 221.7 L 92.62 218.32 L 92.62 217.08 L 92.62 216.63 L 92.62 214.78 C 92.62 214.35 92.97 214 93.4 214 L 97 214 L 97 215.36 L 97 217.1 L 97 218 L 99 218 L 99 217.1 L 99 215.36 L 99 214 L 101.38 214 L 101.38 215.36 L 101.38 217.1 L 101.38 218 L 103.38 218 L 103.38 217.1 L 103.38 215.36 L 103.38 214 L 105.76 214 L 105.76 215.36 L 105.76 217.1 L 105.76 218 L 107.76 218 L 107.76 217.1 L 107.76 215.36 L 107.76 214 L 110.14 214 L 110.14 215.36 L 110.14 217.1 L 110.14 218 L 112.14 218 L 112.14 217.1 L 112.14 215.36 L 112.14 214 L 114.52 214 L 114.52 215.36 L 114.52 217.1 L 114.52 218 L 116.52 218 L 116.52 217.1 L 116.52 215.36 L 116.52 214 L 118.9 214 L 118.9 215.36 L 118.9 217.1 L 118.9 218 L 120.9 218 L 120.9 217.1 L 120.9 215.36 L 120.9 214 L 123.29 214 L 123.29 215.36 L 123.29 217.1 L 123.29 218 L 125.29 218 L 125.29 217.1 L 125.29 215.36 L 125.29 214 L 127.67 214 L 127.67 215.36 L 127.67 217.1 L 127.67 218 L 129.67 218 L 129.67 217.1 L 129.67 215.36 L 129.67 214 L 132.05 214 L 132.05 215.36 L 132.05 217.1 L 132.05 218 L 134.05 218 L 134.05 217.1 L 134.05 215.36 L 134.05 214 L 136.43 214 L 136.43 215.36 L 136.43 217.1 L 136.43 218 L 138.43 218 L 138.43 217.1 L 138.43 215.36 L 138.43 214 L 140.81 214 L 140.81 215.36 L 140.81 217.1 L 140.81 218 L 142.81 218 L 142.81 217.1 L 142.81 215.36 L 142.81 214 L 145.19 214 L 145.19 215.36 L 145.19 217.1 L 145.19 218 L 147.19 218 L 147.19 217.1 L 147.19 215.36 L 147.19 214 L 149.57 214 L 149.57 215.36 L 149.57 217.1 L 149.57 218 L 151.57 218 L 151.57 217.1 L 151.57 215.36 L 151.57 214 L 153.95 214 L 153.95 215.36 L 153.95 217.1 L 153.95 218 L 155.95 218 L 155.95 217.1 L 155.95 215.36 L 155.95 214 L 158.33 214 L 158.33 215.36 L 158.33 217.1 L 158.33 218 L 160.33 218 L 160.33 217.1 L 160.33 215.36 L 160.33 214 L 162.71 214 L 162.71 215.36 L 162.71 217.1 L 162.71 218 L 164.71 218 L 164.71 217.1 L 164.71 215.36 L 164.71 214 L 167.1 214 L 167.1 215.36 L 167.1 217.1 L 167.1 218 L 169.1 218 L 169.1 217.1 L 169.1 215.36 L 169.1 214 L 171.48 214 L 171.48 215.36 L 171.48 217.1 L 171.48 218 L 173.48 218 L 173.48 217.1 L 173.48 215.36 L 173.48 214 L 175.86 214 L 175.86 215.36 L 175.86 217.1 L 175.86 218 L 177.86 218 L 177.86 217.1 L 177.86 215.36 L 177.86 214 L 180.24 214 L 180.24 215.36 L 180.24 217.1 L 180.24 218 L 182.24 218 L 182.24 217.1 L 182.24 215.36 L 182.24 214 L 184.62 214 L 184.62 215.36 L 184.62 217.1 L 184.62 218 L 186.62 218 L 186.62 217.1 L 186.62 215.36 L 186.62 214 L 189 214 L 189 215.36 L 189 217.1 L 189 218 L 191 218 L 191 217.1 L 191 215.36 L 191 214 L 194.72 214 C 195.15 214 195.5 214.35 195.5 214.78 L 195.5 216.71 Z">
      <title>outline</title>
    </path>
  </g>
</svg>
