<?xml version="1.0" encoding="utf-8"?>
<svg version="1.1" x="0px" y="0px" viewBox="0 0 400 250" xmlns="http://www.w3.org/2000/svg">
  <style type="text/css">
  .blue {fill: #4284F3;}
  .yellow {fill: #F1BE42;}
  .green {fill: #58A55C;}
  .red {fill: #D85140;}
  .pink {fill: #F062A7;}
</style>
  <g class="pink" transform="matrix(1, 0, 0, 1, -85.120003, -131.300003)">
    <title>SEO</title>
    <path d="M267.38,246.49c-0.29-0.39-1.31-1.12-3.07-2.19c-1.75-1.07-3.94-2.19-6.57-3.36c-2.63-1.17-5.5-2.19-8.61-3.07 c-3.12-0.88-6.23-1.31-9.34-1.31c-8.57,0-12.85,2.87-12.85,8.61c0,1.75,0.46,3.21,1.39,4.38c0.92,1.17,2.29,2.21,4.09,3.14 c1.8,0.93,4.06,1.78,6.79,2.55c2.72,0.78,5.89,1.66,9.49,2.63c4.96,1.36,9.44,2.85,13.43,4.45c3.99,1.61,7.37,3.6,10.15,5.99 c2.77,2.39,4.91,5.28,6.42,8.69c1.51,3.41,2.26,7.5,2.26,12.26c0,5.84-1.1,10.78-3.29,14.82c-2.19,4.04-5.09,7.3-8.69,9.78 c-3.6,2.48-7.74,4.28-12.41,5.4c-4.67,1.12-9.49,1.68-14.45,1.68c-3.8,0-7.69-0.29-11.68-0.88c-3.99-0.58-7.88-1.43-11.68-2.55 c-3.8-1.12-7.47-2.46-11.02-4.02c-3.55-1.56-6.84-3.36-9.85-5.4l10.51-20.88c0.39,0.49,1.65,1.41,3.8,2.77 c2.14,1.36,4.79,2.73,7.96,4.09c3.16,1.36,6.69,2.58,10.58,3.65c3.89,1.07,7.83,1.61,11.83,1.61c8.47,0,12.7-2.58,12.7-7.74 c0-1.95-0.63-3.55-1.9-4.82c-1.27-1.26-3.02-2.41-5.26-3.43c-2.24-1.02-4.89-1.97-7.96-2.85s-6.4-1.85-10-2.92 c-4.77-1.46-8.91-3.04-12.41-4.75c-3.5-1.7-6.4-3.67-8.69-5.91c-2.29-2.24-3.99-4.82-5.11-7.74c-1.12-2.92-1.68-6.33-1.68-10.22 c0-5.45,1.02-10.27,3.07-14.45c2.04-4.18,4.82-7.71,8.32-10.58c3.5-2.87,7.57-5.04,12.19-6.5c4.62-1.46,9.51-2.19,14.67-2.19 c3.6,0,7.15,0.34,10.66,1.02c3.5,0.68,6.86,1.56,10.07,2.63c3.21,1.07,6.2,2.29,8.98,3.65c2.77,1.36,5.33,2.73,7.67,4.09 L267.38,246.49z"></path>
    <path d="M365.64,298.76v21.02h-72.85V216.13h71.54v21.02h-47.6v20.15h40.88v19.42h-40.88v22.05H365.64z"></path>
    <path d="M421.26,320.66c-7.69,0-14.7-1.51-21.02-4.53c-6.33-3.02-11.73-6.98-16.21-11.9 c-4.48-4.91-7.96-10.54-10.44-16.86c-2.48-6.33-3.72-12.85-3.72-19.56c0-6.81,1.29-13.38,3.87-19.71 c2.58-6.33,6.18-11.9,10.8-16.72c4.62-4.82,10.1-8.66,16.42-11.53c6.33-2.87,13.24-4.31,20.73-4.31c7.69,0,14.7,1.51,21.02,4.53 c6.33,3.02,11.73,7.01,16.21,11.97c4.48,4.96,7.93,10.61,10.37,16.94c2.43,6.33,3.65,12.75,3.65,19.27 c0,6.81-1.29,13.38-3.87,19.71c-2.58,6.33-6.16,11.9-10.73,16.72c-4.58,4.82-10.03,8.69-16.35,11.61 C435.67,319.2,428.76,320.66,421.26,320.66z M394.25,268.1c0,3.99,0.58,7.86,1.75,11.61c1.17,3.75,2.89,7.08,5.18,10 c2.29,2.92,5.13,5.26,8.54,7.01c3.41,1.75,7.3,2.63,11.68,2.63c4.57,0,8.56-0.92,11.97-2.77c3.41-1.85,6.23-4.26,8.47-7.23 c2.24-2.97,3.92-6.33,5.04-10.07c1.12-3.75,1.68-7.57,1.68-11.46c0-3.99-0.58-7.86-1.75-11.61c-1.17-3.75-2.92-7.06-5.26-9.93 c-2.34-2.87-5.18-5.16-8.54-6.86c-3.36-1.7-7.23-2.56-11.61-2.56c-4.58,0-8.54,0.9-11.9,2.7c-3.36,1.8-6.18,4.16-8.47,7.08 c-2.29,2.92-3.99,6.26-5.11,10C394.81,260.39,394.25,264.21,394.25,268.1z"></path>
  </g>
  <g class="pink" transform="matrix(1, 0, 0, 1, -85.120003, -131.300003)">
    <title>internet juice</title>
    <path d="M226.71,357.31c-0.5,0.46-1.13,0.96-1.88,1.48c-0.75,0.53-1.56,1.01-2.43,1.45c-0.87,0.44-1.75,0.81-2.66,1.1 c-0.9,0.29-1.76,0.44-2.57,0.44c-0.73,0-1.34-0.1-1.84-0.3c-0.5-0.2-0.9-0.49-1.21-0.85c-0.31-0.36-0.53-0.81-0.66-1.33 c-0.13-0.52-0.2-1.1-0.2-1.73c0-0.88,0.1-1.91,0.3-3.08c0.2-1.17,0.45-2.38,0.75-3.63c0.29-1.25,0.61-2.5,0.93-3.75 c0.33-1.25,0.62-2.39,0.87-3.44c0.1-0.36,0.29-0.68,0.59-0.93s0.63-0.47,1-0.63c0.37-0.16,0.76-0.28,1.16-0.36 c0.4-0.08,0.76-0.12,1.08-0.12c0.59,0,0.99,0.11,1.2,0.33c0.21,0.22,0.31,0.51,0.31,0.87c0,0.31-0.07,0.75-0.21,1.33 c-0.14,0.58-0.31,1.24-0.52,1.97c-0.21,0.73-0.43,1.53-0.67,2.37c-0.24,0.85-0.46,1.69-0.67,2.54s-0.39,1.67-0.52,2.48 c-0.14,0.8-0.21,1.53-0.21,2.17c0,0.63,0.07,1.13,0.21,1.5c0.14,0.37,0.43,0.56,0.86,0.56c0.5,0,1.06-0.17,1.68-0.53 c0.62-0.35,1.24-0.77,1.87-1.27s1.25-1.01,1.85-1.54c0.6-0.53,1.13-0.99,1.6-1.37V357.31z M217.33,335.73 c0-0.32,0.07-0.69,0.21-1.09c0.14-0.41,0.37-0.79,0.68-1.14c0.32-0.36,0.74-0.66,1.26-0.9c0.53-0.24,1.18-0.37,1.96-0.37 c0.49,0,0.95,0.06,1.39,0.17c0.43,0.11,0.81,0.28,1.13,0.51c0.32,0.23,0.58,0.54,0.77,0.91c0.19,0.38,0.28,0.83,0.28,1.34 c0,0.48-0.08,0.94-0.23,1.39c-0.15,0.45-0.4,0.85-0.73,1.2c-0.34,0.35-0.76,0.63-1.27,0.85c-0.51,0.22-1.12,0.33-1.84,0.33 c-1.23,0-2.14-0.29-2.73-0.87C217.62,337.47,217.33,336.7,217.33,335.73z"></path>
    <path d="M226.04,357.4c0-0.92,0.06-1.99,0.17-3.2c0.11-1.21,0.25-2.44,0.42-3.7s0.36-2.46,0.57-3.62 s0.41-2.16,0.61-2.98c0.15-0.64,0.45-1.18,0.89-1.62c0.44-0.43,1.04-0.65,1.79-0.65s1.28,0.23,1.57,0.69 c0.29,0.46,0.44,1.08,0.44,1.85c0,0.21-0.02,0.49-0.06,0.85c-0.04,0.36-0.09,0.75-0.16,1.18c-0.06,0.43-0.13,0.87-0.2,1.32 c-0.07,0.46-0.14,0.88-0.2,1.26c-0.06,0.38-0.12,0.72-0.16,1.01s-0.06,0.48-0.06,0.58h0.42c0.08-0.15,0.22-0.4,0.4-0.75 c0.18-0.34,0.39-0.74,0.63-1.19c0.24-0.45,0.49-0.92,0.77-1.42c0.27-0.5,0.53-0.97,0.77-1.43c0.24-0.46,0.45-0.86,0.65-1.21 c0.2-0.35,0.34-0.61,0.44-0.78c0.45-0.76,0.96-1.27,1.53-1.55c0.57-0.28,1.21-0.42,1.91-0.42c0.7,0,1.26,0.29,1.67,0.88 c0.41,0.59,0.62,1.4,0.62,2.44c0,0.15-0.03,0.41-0.09,0.78c-0.06,0.36-0.14,0.8-0.24,1.3c-0.1,0.5-0.21,1.06-0.33,1.66 c-0.12,0.6-0.23,1.22-0.33,1.85c-0.1,0.63-0.18,1.25-0.24,1.87c-0.06,0.62-0.09,1.18-0.09,1.7c0,0.87,0.11,1.58,0.33,2.14 c0.22,0.56,0.56,0.84,1.02,0.84c0.21,0,0.45-0.06,0.72-0.19c0.27-0.12,0.57-0.29,0.88-0.49c0.31-0.2,0.64-0.44,0.97-0.7 c0.33-0.27,0.65-0.54,0.98-0.82c0.74-0.66,1.52-1.4,2.33-2.22l0.36,4.7l-1.05,0.8c-0.57,0.43-1.16,0.87-1.75,1.3 c-0.59,0.43-1.21,0.82-1.86,1.17c-0.64,0.34-1.32,0.62-2.02,0.84c-0.7,0.22-1.44,0.33-2.2,0.33c-0.77,0-1.42-0.56-1.94-1.67 c-0.52-1.11-0.79-2.74-0.79-4.88c0-0.84,0.06-1.75,0.17-2.72c0.11-0.97,0.25-2.02,0.42-3.14h-0.34l-5.5,10.92 c-0.28,0.57-0.6,0.96-0.94,1.18c-0.35,0.21-0.76,0.31-1.22,0.31c-0.57,0-1.04-0.12-1.39-0.37c-0.35-0.25-0.62-0.57-0.81-0.99 c-0.19-0.41-0.32-0.88-0.38-1.41C226.07,358.5,226.04,357.96,226.04,357.4z"></path>
    <path d="M263.79,357.08c-1.34,0.78-2.54,1.47-3.59,2.06s-1.98,1.08-2.8,1.47c-0.82,0.39-1.55,0.69-2.18,0.88 c-0.64,0.2-1.21,0.29-1.73,0.29c-1.06,0-2-0.32-2.81-0.97c-0.81-0.64-1.49-1.57-2.04-2.78c-0.55-1.21-0.96-2.68-1.23-4.4 c-0.27-1.72-0.41-3.66-0.41-5.82c0-0.84,0.03-1.74,0.1-2.69c0.07-0.95,0.17-1.9,0.29-2.83c-0.42-0.06-0.75-0.11-0.98-0.16 c-0.23-0.05-0.48-0.1-0.74-0.15c-0.26-0.05-0.59-0.1-0.99-0.16c-0.4-0.06-0.98-0.13-1.73-0.21c-0.34-0.04-0.59-0.12-0.78-0.24 c-0.18-0.12-0.31-0.26-0.4-0.42s-0.13-0.33-0.15-0.5c-0.01-0.17-0.02-0.33-0.02-0.45c0-0.28,0.14-0.49,0.41-0.64 c0.27-0.15,0.62-0.26,1.05-0.33c0.43-0.07,0.9-0.11,1.41-0.12c0.51-0.01,1,0,1.47,0.01c0.47,0.01,0.89,0.02,1.26,0.03 c0.37,0.01,0.63,0,0.77-0.03c0.38-1.89,0.86-3.72,1.44-5.49c0.58-1.77,1.23-3.35,1.95-4.72c0.72-1.38,1.51-2.48,2.36-3.32 c0.85-0.83,1.75-1.25,2.69-1.25c0.6,0,1.15,0.17,1.65,0.5c0.5,0.34,0.92,0.78,1.27,1.34c0.35,0.56,0.62,1.21,0.81,1.96 c0.19,0.75,0.28,1.53,0.28,2.34c0,0.69-0.1,1.41-0.29,2.17c-0.2,0.76-0.46,1.54-0.8,2.33c-0.34,0.79-0.73,1.59-1.19,2.4 c-0.45,0.81-0.93,1.62-1.44,2.42c0.13,0.01,0.34,0.02,0.63,0.03s0.63,0.02,1.02,0.03c0.39,0.01,0.8,0.03,1.25,0.05 c0.45,0.02,0.88,0.04,1.3,0.05c0.42,0.01,0.81,0.03,1.18,0.04c0.36,0.01,0.66,0.03,0.9,0.04c0.28,0.01,0.48,0.15,0.61,0.42 c0.13,0.27,0.19,0.6,0.19,1.01c0,0.49-0.14,0.89-0.42,1.2c-0.28,0.31-0.59,0.46-0.92,0.46h-8.06c-0.41,0.56-0.82,1.11-1.23,1.65 c-0.41,0.54-0.79,1.03-1.14,1.46c-0.06,0.87-0.1,1.72-0.15,2.56c-0.01,0.36-0.03,0.74-0.04,1.12c-0.01,0.39-0.03,0.77-0.04,1.14 c-0.01,0.38-0.02,0.74-0.03,1.09c-0.01,0.35-0.01,0.67-0.01,0.97c0,0.76,0.07,1.39,0.21,1.91c0.14,0.52,0.34,0.94,0.61,1.27 c0.27,0.33,0.59,0.57,0.98,0.71c0.39,0.15,0.82,0.22,1.29,0.22c0.29,0,0.66-0.07,1.1-0.21c0.44-0.14,0.92-0.33,1.45-0.58 c0.52-0.25,1.08-0.54,1.66-0.87c0.58-0.34,1.16-0.7,1.72-1.1c0.57-0.4,1.11-0.82,1.63-1.26c0.52-0.44,0.99-0.89,1.41-1.35V357.08z M257.07,330.5c0-0.15-0.01-0.33-0.03-0.51c-0.02-0.19-0.07-0.37-0.14-0.54c-0.07-0.17-0.18-0.31-0.33-0.42 c-0.15-0.11-0.35-0.17-0.62-0.17c-0.36,0-0.73,0.32-1.1,0.97c-0.37,0.64-0.73,1.47-1.07,2.47c-0.34,1-0.66,2.1-0.97,3.31 c-0.3,1.2-0.58,2.37-0.83,3.51c0.21,0.03,0.42,0.05,0.63,0.07c0.21,0.02,0.43,0.05,0.65,0.07c0.42-0.71,0.86-1.49,1.31-2.32 c0.46-0.83,0.86-1.65,1.23-2.46c0.36-0.8,0.66-1.56,0.9-2.26C256.95,331.52,257.07,330.95,257.07,330.5z"></path>
    <path d="M271.05,361.79c-1.32,0-2.47-0.24-3.45-0.71c-0.99-0.48-1.81-1.12-2.47-1.92c-0.66-0.8-1.15-1.74-1.48-2.79 c-0.33-1.06-0.49-2.17-0.49-3.33c0-0.78,0.08-1.61,0.23-2.49c0.15-0.88,0.39-1.73,0.7-2.57c0.31-0.84,0.71-1.64,1.19-2.4 c0.48-0.76,1.03-1.43,1.67-2.02c0.64-0.58,1.35-1.04,2.14-1.39c0.79-0.34,1.67-0.51,2.63-0.51c0.78,0,1.51,0.12,2.18,0.38 s1.26,0.61,1.75,1.06c0.5,0.46,0.89,1,1.17,1.65c0.28,0.64,0.42,1.37,0.42,2.16c0,0.87-0.21,1.74-0.64,2.6 c-0.43,0.87-1.02,1.69-1.77,2.46s-1.66,1.46-2.7,2.06c-1.04,0.6-2.17,1.07-3.39,1.41c0.21,0.38,0.42,0.69,0.62,0.94 c0.2,0.25,0.41,0.45,0.62,0.59s0.43,0.24,0.66,0.29c0.23,0.06,0.48,0.08,0.75,0.08c0.84,0,1.73-0.17,2.66-0.5 c0.93-0.34,1.84-0.76,2.72-1.26s1.71-1.05,2.5-1.65c0.78-0.59,1.45-1.16,1.99-1.69l2.71,2.81c-1.23,1.27-2.54,2.4-3.93,3.38 c-0.6,0.42-1.25,0.83-1.94,1.24c-0.69,0.41-1.42,0.77-2.18,1.08c-0.76,0.31-1.55,0.57-2.37,0.76 C272.72,361.69,271.89,361.79,271.05,361.79z M268.26,351.92c0.5,0,1.05-0.13,1.65-0.39c0.6-0.26,1.15-0.59,1.66-1 c0.51-0.41,0.94-0.85,1.29-1.32c0.35-0.48,0.52-0.94,0.52-1.39c0-0.63-0.12-1.15-0.35-1.55c-0.23-0.41-0.51-0.61-0.85-0.61 c-0.6,0-1.12,0.11-1.54,0.34c-0.43,0.22-0.78,0.51-1.07,0.87c-0.29,0.36-0.52,0.76-0.69,1.22c-0.18,0.46-0.31,0.91-0.4,1.38 c-0.09,0.46-0.15,0.91-0.18,1.34C268.27,351.24,268.26,351.61,268.26,351.92z"></path>
    <path d="M281.29,357.4c0-0.62,0.03-1.33,0.1-2.15c0.07-0.82,0.16-1.68,0.28-2.59c0.12-0.91,0.26-1.84,0.42-2.78 c0.16-0.95,0.33-1.84,0.51-2.7c0.18-0.85,0.36-1.64,0.55-2.35c0.18-0.71,0.36-1.3,0.55-1.76c0.11-0.31,0.22-0.55,0.34-0.73 c0.11-0.18,0.24-0.33,0.39-0.43c0.15-0.11,0.33-0.17,0.55-0.21c0.22-0.04,0.49-0.05,0.81-0.05c0.36,0,0.65,0.02,0.85,0.05 c0.2,0.04,0.35,0.12,0.45,0.25c0.1,0.13,0.16,0.33,0.18,0.58c0.02,0.25,0.03,0.59,0.03,1.03c0,0.52,0,1.14,0,1.88 c0,0.73,0.01,1.46,0.04,2.17h0.23c0.28-0.56,0.59-1.19,0.94-1.88c0.35-0.69,0.76-1.34,1.22-1.94s0.99-1.11,1.57-1.52 c0.59-0.41,1.27-0.62,2.04-0.62c0.27,0,0.52,0.05,0.78,0.14s0.47,0.22,0.66,0.39c0.19,0.17,0.34,0.37,0.45,0.62 c0.11,0.25,0.17,0.52,0.17,0.83c0,0.24-0.04,0.57-0.1,1c-0.07,0.43-0.15,0.88-0.23,1.34c-0.08,0.47-0.16,0.92-0.23,1.37 c-0.07,0.44-0.1,0.81-0.1,1.1c0,0.5,0.05,0.92,0.15,1.26c0.1,0.34,0.23,0.61,0.39,0.81c0.16,0.2,0.34,0.35,0.55,0.43 c0.2,0.08,0.42,0.13,0.64,0.13c0.63,0,1.28-0.14,1.95-0.42s1.29-0.59,1.85-0.95c0.66-0.41,1.3-0.87,1.93-1.38l-0.31,4.91 c-0.36,0.24-0.78,0.5-1.24,0.8c-0.46,0.29-0.96,0.57-1.48,0.83c-0.53,0.26-1.07,0.48-1.64,0.65c-0.57,0.18-1.14,0.26-1.73,0.26 c-1.05,0-1.9-0.21-2.54-0.64c-0.64-0.43-1.15-0.99-1.53-1.68c-0.38-0.69-0.66-1.47-0.84-2.33c-0.18-0.86-0.33-1.73-0.44-2.61h-0.34 l-3.76,10.48c-0.2,0.54-0.38,1-0.56,1.35c-0.17,0.36-0.35,0.65-0.54,0.87c-0.18,0.22-0.38,0.38-0.59,0.47 c-0.21,0.09-0.44,0.14-0.69,0.14c-0.57,0-1.04-0.12-1.39-0.37c-0.35-0.25-0.62-0.57-0.81-0.99c-0.19-0.41-0.32-0.88-0.38-1.41 C281.32,358.5,281.29,357.96,281.29,357.4z"></path>
    <path d="M300.25,357.4c0-0.92,0.06-1.99,0.17-3.2c0.11-1.21,0.25-2.44,0.42-3.7s0.36-2.46,0.57-3.62 s0.41-2.16,0.61-2.98c0.15-0.64,0.45-1.18,0.89-1.62c0.44-0.43,1.04-0.65,1.79-0.65s1.28,0.23,1.57,0.69 c0.29,0.46,0.44,1.08,0.44,1.85c0,0.21-0.02,0.49-0.06,0.85c-0.04,0.36-0.09,0.75-0.16,1.18c-0.06,0.43-0.13,0.87-0.2,1.32 c-0.07,0.46-0.14,0.88-0.2,1.26c-0.06,0.38-0.12,0.72-0.16,1.01s-0.06,0.48-0.06,0.58h0.42c0.08-0.15,0.22-0.4,0.4-0.75 c0.18-0.34,0.39-0.74,0.63-1.19c0.24-0.45,0.49-0.92,0.77-1.42c0.27-0.5,0.53-0.97,0.77-1.43c0.24-0.46,0.45-0.86,0.65-1.21 c0.2-0.35,0.34-0.61,0.44-0.78c0.45-0.76,0.96-1.27,1.53-1.55c0.57-0.28,1.21-0.42,1.91-0.42c0.7,0,1.26,0.29,1.67,0.88 c0.41,0.59,0.62,1.4,0.62,2.44c0,0.15-0.03,0.41-0.09,0.78c-0.06,0.36-0.14,0.8-0.24,1.3c-0.1,0.5-0.21,1.06-0.33,1.66 c-0.12,0.6-0.23,1.22-0.33,1.85c-0.1,0.63-0.18,1.25-0.24,1.87c-0.06,0.62-0.09,1.18-0.09,1.7c0,0.87,0.11,1.58,0.33,2.14 c0.22,0.56,0.56,0.84,1.02,0.84c0.21,0,0.45-0.06,0.72-0.19c0.27-0.12,0.57-0.29,0.88-0.49c0.31-0.2,0.64-0.44,0.97-0.7 c0.33-0.27,0.65-0.54,0.98-0.82c0.74-0.66,1.52-1.4,2.33-2.22l0.36,4.7l-1.05,0.8c-0.57,0.43-1.16,0.87-1.75,1.3 c-0.59,0.43-1.21,0.82-1.86,1.17c-0.64,0.34-1.32,0.62-2.02,0.84c-0.7,0.22-1.44,0.33-2.2,0.33c-0.77,0-1.42-0.56-1.94-1.67 c-0.52-1.11-0.79-2.74-0.79-4.88c0-0.84,0.06-1.75,0.17-2.72c0.11-0.97,0.25-2.02,0.42-3.14h-0.34l-5.5,10.92 c-0.28,0.57-0.6,0.96-0.94,1.18c-0.35,0.21-0.76,0.31-1.22,0.31c-0.57,0-1.04-0.12-1.39-0.37c-0.35-0.25-0.62-0.57-0.81-0.99 c-0.19-0.41-0.32-0.88-0.38-1.41C300.28,358.5,300.25,357.96,300.25,357.4z"></path>
    <path d="M327.63,361.79c-1.32,0-2.47-0.24-3.45-0.71c-0.99-0.48-1.81-1.12-2.47-1.92c-0.66-0.8-1.15-1.74-1.48-2.79 c-0.33-1.06-0.49-2.17-0.49-3.33c0-0.78,0.08-1.61,0.23-2.49c0.15-0.88,0.39-1.73,0.7-2.57c0.31-0.84,0.71-1.64,1.19-2.4 c0.48-0.76,1.03-1.43,1.67-2.02c0.64-0.58,1.35-1.04,2.14-1.39c0.79-0.34,1.67-0.51,2.63-0.51c0.78,0,1.51,0.12,2.18,0.38 s1.26,0.61,1.75,1.06c0.5,0.46,0.88,1,1.17,1.65s0.42,1.37,0.42,2.16c0,0.87-0.21,1.74-0.64,2.6c-0.43,0.87-1.02,1.69-1.78,2.46 s-1.65,1.46-2.7,2.06s-2.17,1.07-3.39,1.41c0.21,0.38,0.42,0.69,0.62,0.94c0.2,0.25,0.41,0.45,0.62,0.59s0.43,0.24,0.66,0.29 c0.23,0.06,0.48,0.08,0.74,0.08c0.84,0,1.73-0.17,2.66-0.5c0.93-0.34,1.84-0.76,2.72-1.26c0.88-0.5,1.71-1.05,2.5-1.65 c0.78-0.59,1.45-1.16,2-1.69l2.71,2.81c-1.23,1.27-2.54,2.4-3.93,3.38c-0.6,0.42-1.25,0.83-1.94,1.24 c-0.69,0.41-1.42,0.77-2.18,1.08c-0.76,0.31-1.55,0.57-2.37,0.76C329.3,361.69,328.47,361.79,327.63,361.79z M324.83,351.92 c0.5,0,1.05-0.13,1.65-0.39c0.6-0.26,1.15-0.59,1.66-1c0.51-0.41,0.94-0.85,1.29-1.32c0.35-0.48,0.52-0.94,0.52-1.39 c0-0.63-0.12-1.15-0.35-1.55c-0.23-0.41-0.51-0.61-0.85-0.61c-0.6,0-1.12,0.11-1.54,0.34c-0.43,0.22-0.79,0.51-1.07,0.87 c-0.29,0.36-0.52,0.76-0.69,1.22c-0.18,0.46-0.31,0.91-0.4,1.38c-0.09,0.46-0.15,0.91-0.18,1.34 C324.85,351.24,324.83,351.61,324.83,351.92z"></path>
    <path d="M355.34,357.08c-1.34,0.78-2.54,1.47-3.59,2.06c-1.05,0.59-1.98,1.08-2.8,1.47c-0.82,0.39-1.55,0.69-2.18,0.88 s-1.21,0.29-1.73,0.29c-1.06,0-2-0.32-2.81-0.97c-0.81-0.64-1.49-1.57-2.04-2.78c-0.55-1.21-0.96-2.68-1.23-4.4 c-0.27-1.72-0.41-3.66-0.41-5.82c0-0.84,0.03-1.74,0.1-2.69c0.07-0.95,0.17-1.9,0.29-2.83c-0.42-0.06-0.75-0.11-0.98-0.16 c-0.23-0.05-0.48-0.1-0.74-0.15c-0.26-0.05-0.59-0.1-0.99-0.16c-0.4-0.06-0.98-0.13-1.73-0.21c-0.34-0.04-0.59-0.12-0.78-0.24 s-0.32-0.26-0.4-0.42s-0.13-0.33-0.15-0.5c-0.01-0.17-0.02-0.33-0.02-0.45c0-0.28,0.14-0.49,0.41-0.64 c0.27-0.15,0.62-0.26,1.05-0.33c0.43-0.07,0.9-0.11,1.41-0.12c0.51-0.01,1,0,1.47,0.01c0.47,0.01,0.89,0.02,1.26,0.03 c0.37,0.01,0.63,0,0.77-0.03c0.38-1.89,0.86-3.72,1.44-5.49c0.58-1.77,1.23-3.35,1.95-4.72c0.72-1.38,1.51-2.48,2.36-3.32 c0.85-0.83,1.75-1.25,2.69-1.25c0.6,0,1.15,0.17,1.65,0.5s0.92,0.78,1.27,1.34s0.62,1.21,0.81,1.96c0.19,0.75,0.28,1.53,0.28,2.34 c0,0.69-0.1,1.41-0.29,2.17c-0.2,0.76-0.46,1.54-0.8,2.33c-0.34,0.79-0.73,1.59-1.19,2.4s-0.93,1.62-1.44,2.42 c0.13,0.01,0.34,0.02,0.63,0.03c0.29,0.01,0.63,0.02,1.02,0.03s0.8,0.03,1.25,0.05c0.45,0.02,0.88,0.04,1.3,0.05 c0.42,0.01,0.81,0.03,1.18,0.04c0.36,0.01,0.67,0.03,0.9,0.04c0.28,0.01,0.48,0.15,0.61,0.42c0.13,0.27,0.19,0.6,0.19,1.01 c0,0.49-0.14,0.89-0.42,1.2s-0.59,0.46-0.92,0.46h-8.06c-0.41,0.56-0.82,1.11-1.23,1.65s-0.79,1.03-1.14,1.46 c-0.06,0.87-0.1,1.72-0.15,2.56c-0.01,0.36-0.03,0.74-0.04,1.12c-0.01,0.39-0.03,0.77-0.04,1.14s-0.02,0.74-0.03,1.09 c-0.01,0.35-0.01,0.67-0.01,0.97c0,0.76,0.07,1.39,0.21,1.91c0.14,0.52,0.34,0.94,0.61,1.27c0.27,0.33,0.59,0.57,0.98,0.71 c0.38,0.15,0.82,0.22,1.29,0.22c0.29,0,0.66-0.07,1.1-0.21c0.44-0.14,0.92-0.33,1.45-0.58c0.52-0.25,1.08-0.54,1.66-0.87 s1.16-0.7,1.72-1.1c0.57-0.4,1.11-0.82,1.63-1.26c0.52-0.44,0.99-0.89,1.41-1.35V357.08z M348.62,330.5c0-0.15-0.01-0.33-0.03-0.51 c-0.02-0.19-0.07-0.37-0.14-0.54s-0.18-0.31-0.33-0.42c-0.15-0.11-0.35-0.17-0.62-0.17c-0.36,0-0.73,0.32-1.1,0.97 c-0.37,0.64-0.73,1.47-1.07,2.47c-0.34,1-0.67,2.1-0.97,3.31c-0.3,1.2-0.58,2.37-0.83,3.51c0.21,0.03,0.42,0.05,0.63,0.07 c0.21,0.02,0.43,0.05,0.65,0.07c0.42-0.71,0.86-1.49,1.31-2.32s0.86-1.65,1.23-2.46c0.36-0.8,0.67-1.56,0.9-2.26 C348.5,331.52,348.62,330.95,348.62,330.5z"></path>
    <path d="M365.08,361.79c0-0.22,0.03-0.62,0.09-1.19c0.06-0.57,0.15-1.25,0.25-2.06c0.1-0.8,0.23-1.7,0.39-2.68 c0.15-0.98,0.32-1.98,0.5-3.01c0.18-1.03,0.38-2.05,0.59-3.07c0.21-1.01,0.43-1.97,0.65-2.86s0.45-1.68,0.68-2.36 c0.23-0.69,0.46-1.22,0.68-1.6c0.2-0.32,0.43-0.57,0.69-0.76s0.56-0.31,0.87-0.4c0.32-0.08,0.64-0.14,0.99-0.16 c0.34-0.02,0.68-0.03,1.02-0.03c0.49,0,0.84,0.15,1.06,0.44c0.22,0.29,0.33,0.6,0.33,0.92c0,0.17-0.04,0.43-0.12,0.8 c-0.08,0.36-0.17,0.76-0.28,1.18s-0.22,0.82-0.34,1.2s-0.2,0.66-0.25,0.84l-1.18,3.36c0.78-0.13,1.54-0.21,2.27-0.26 c0.73-0.05,1.53-0.14,2.39-0.27s1.85-0.36,2.94-0.67c1.09-0.32,2.39-0.81,3.91-1.48v4.03c-0.92,0.5-1.85,0.89-2.78,1.17 c-0.93,0.27-1.77,0.47-2.53,0.6c-0.88,0.15-1.74,0.24-2.58,0.25c0.35,0.91,0.66,1.85,0.92,2.83c0.24,0.84,0.45,1.77,0.64,2.8 c0.19,1.03,0.28,2.06,0.28,3.1c0,0.18-0.02,0.61-0.05,1.27c-0.04,0.66-0.12,1.45-0.25,2.34s-0.34,1.84-0.63,2.84 s-0.68,1.92-1.18,2.75c-0.5,0.83-1.12,1.52-1.87,2.07c-0.75,0.54-1.66,0.82-2.74,0.82c-0.98,0-1.81-0.29-2.5-0.86 c-0.69-0.57-1.24-1.41-1.67-2.5s-0.73-2.43-0.92-4.01C365.17,365.6,365.08,363.8,365.08,361.79z M369.74,335.73 c0-0.32,0.07-0.69,0.21-1.09c0.14-0.41,0.37-0.79,0.68-1.14c0.31-0.36,0.73-0.66,1.26-0.9c0.52-0.24,1.18-0.37,1.96-0.37 c0.49,0,0.95,0.06,1.39,0.17s0.81,0.28,1.13,0.51c0.32,0.23,0.58,0.54,0.77,0.91c0.19,0.38,0.28,0.83,0.28,1.34 c0,0.48-0.08,0.94-0.23,1.39c-0.15,0.45-0.4,0.85-0.74,1.2c-0.34,0.35-0.76,0.63-1.27,0.85c-0.51,0.22-1.12,0.33-1.84,0.33 c-1.23,0-2.14-0.29-2.73-0.87C370.03,337.47,369.74,336.7,369.74,335.73z M371.08,352.4c-0.36,2.17-0.67,4.36-0.92,6.57 s-0.38,4.49-0.38,6.84c0,0.77,0.05,1.41,0.15,1.92c0.1,0.51,0.22,0.92,0.37,1.24c0.15,0.31,0.29,0.54,0.44,0.67 c0.15,0.13,0.28,0.2,0.39,0.2c0.46,0,0.83-0.25,1.1-0.76c0.27-0.5,0.48-1.13,0.61-1.87c0.13-0.74,0.22-1.54,0.25-2.4 c0.04-0.86,0.05-1.65,0.05-2.36c0-0.41-0.03-0.86-0.09-1.38c-0.06-0.51-0.14-1.04-0.23-1.59c-0.09-0.54-0.2-1.1-0.33-1.66 c-0.13-0.56-0.25-1.11-0.38-1.64C371.8,354.97,371.46,353.7,371.08,352.4z"></path>
    <path d="M398.4,343c0,0.38-0.04,0.89-0.13,1.54c-0.08,0.65-0.19,1.36-0.33,2.14c-0.13,0.78-0.28,1.58-0.43,2.4 c-0.15,0.83-0.3,1.6-0.43,2.31c-0.13,0.71-0.24,1.34-0.33,1.88s-0.13,0.91-0.13,1.12c0,0.39,0.01,0.75,0.02,1.08 c0.01,0.33,0.06,0.62,0.12,0.86c0.07,0.25,0.18,0.43,0.33,0.57c0.15,0.13,0.36,0.2,0.64,0.2c0.31,0,0.68-0.08,1.12-0.23 c0.44-0.15,0.91-0.36,1.41-0.62s1-0.55,1.52-0.88s1.01-0.68,1.48-1.04c0.47-0.36,0.9-0.72,1.28-1.08c0.38-0.36,0.7-0.69,0.93-1 c0,0.46,0,0.88,0.01,1.26c0.01,0.38,0.01,0.74,0.01,1.08c0,0.34,0,0.7,0.01,1.06s0.01,0.77,0.01,1.22 c-0.31,0.31-0.69,0.64-1.14,0.99c-0.46,0.35-0.96,0.7-1.51,1.05c-0.55,0.35-1.14,0.69-1.76,1.01c-0.62,0.32-1.25,0.61-1.88,0.85 c-0.63,0.25-1.25,0.44-1.87,0.59c-0.62,0.15-1.19,0.22-1.72,0.22c-0.53,0-0.99-0.1-1.37-0.32c-0.38-0.21-0.7-0.5-0.98-0.88 c-0.27-0.38-0.5-0.83-0.69-1.35c-0.19-0.53-0.35-1.11-0.49-1.75c-0.5,0.66-1.04,1.26-1.6,1.82c-0.56,0.55-1.13,1.03-1.71,1.44 s-1.17,0.72-1.76,0.96c-0.59,0.23-1.17,0.35-1.73,0.35c-0.46,0-0.9-0.08-1.3-0.23c-0.41-0.15-0.77-0.41-1.08-0.78 c-0.31-0.36-0.56-0.84-0.75-1.44c-0.18-0.59-0.27-1.33-0.27-2.21c0-1.08,0.13-2.45,0.39-4.12s0.58-3.57,0.96-5.71 c0.03-0.21,0.08-0.49,0.16-0.85c0.08-0.36,0.18-0.75,0.31-1.17s0.3-0.85,0.49-1.28c0.2-0.43,0.43-0.83,0.69-1.18 c0.27-0.35,0.58-0.64,0.93-0.86c0.36-0.22,0.76-0.34,1.21-0.36c0.74,0.03,1.27,0.12,1.6,0.28s0.48,0.36,0.48,0.6 c-0.12,0.74-0.26,1.57-0.41,2.48c-0.15,0.91-0.3,1.83-0.45,2.75s-0.3,1.82-0.44,2.7c-0.14,0.88-0.27,1.66-0.38,2.34 c-0.11,0.69-0.2,1.24-0.26,1.66c-0.06,0.42-0.09,0.64-0.09,0.65c0,0.25,0.02,0.49,0.07,0.72c0.05,0.23,0.12,0.44,0.22,0.62 s0.22,0.33,0.38,0.44c0.15,0.11,0.34,0.17,0.55,0.17c0.31,0,0.62-0.08,0.95-0.24c0.32-0.16,0.63-0.39,0.91-0.69 c0.29-0.3,0.54-0.67,0.77-1.11c0.22-0.44,0.39-0.94,0.5-1.5l2.08-10.67c0.07-0.34,0.35-0.62,0.85-0.85 c0.5-0.23,1.06-0.35,1.69-0.35c0.71,0,1.28,0.12,1.7,0.38S398.4,342.6,398.4,343z"></path>
    <path d="M416.47,357.31c-0.5,0.46-1.13,0.96-1.88,1.48c-0.75,0.53-1.56,1.01-2.43,1.45c-0.87,0.44-1.75,0.81-2.66,1.1 c-0.9,0.29-1.76,0.44-2.57,0.44c-0.73,0-1.34-0.1-1.84-0.3c-0.5-0.2-0.9-0.49-1.21-0.85c-0.31-0.36-0.53-0.81-0.66-1.33 c-0.13-0.52-0.2-1.1-0.2-1.73c0-0.88,0.1-1.91,0.3-3.08c0.2-1.17,0.45-2.38,0.75-3.63c0.29-1.25,0.61-2.5,0.93-3.75 c0.33-1.25,0.62-2.39,0.87-3.44c0.1-0.36,0.29-0.68,0.59-0.93s0.63-0.47,1-0.63s0.76-0.28,1.16-0.36c0.4-0.08,0.76-0.12,1.08-0.12 c0.59,0,0.99,0.11,1.2,0.33c0.21,0.22,0.32,0.51,0.32,0.87c0,0.31-0.07,0.75-0.21,1.33s-0.31,1.24-0.53,1.97 c-0.21,0.73-0.43,1.53-0.67,2.37c-0.24,0.85-0.46,1.69-0.67,2.54c-0.21,0.85-0.38,1.67-0.52,2.48s-0.21,1.53-0.21,2.17 c0,0.63,0.07,1.13,0.21,1.5c0.14,0.37,0.43,0.56,0.86,0.56c0.5,0,1.06-0.17,1.68-0.53c0.62-0.35,1.24-0.77,1.87-1.27 s1.25-1.01,1.85-1.54c0.6-0.53,1.13-0.99,1.6-1.37V357.31z M407.09,335.73c0-0.32,0.07-0.69,0.21-1.09 c0.14-0.41,0.37-0.79,0.68-1.14c0.32-0.36,0.74-0.66,1.26-0.9c0.53-0.24,1.18-0.37,1.96-0.37c0.49,0,0.95,0.06,1.38,0.17 c0.43,0.11,0.81,0.28,1.13,0.51c0.32,0.23,0.58,0.54,0.77,0.91c0.19,0.38,0.28,0.83,0.28,1.34c0,0.48-0.08,0.94-0.23,1.39 s-0.4,0.85-0.73,1.2c-0.34,0.35-0.76,0.63-1.27,0.85c-0.51,0.22-1.12,0.33-1.84,0.33c-1.23,0-2.14-0.29-2.73-0.87 C407.38,337.47,407.09,336.7,407.09,335.73z"></path>
    <path d="M422.29,361.79c-1.29,0-2.42-0.24-3.39-0.71s-1.79-1.11-2.45-1.91c-0.66-0.8-1.15-1.72-1.49-2.77 c-0.34-1.05-0.5-2.14-0.5-3.28c0-0.81,0.08-1.66,0.25-2.54s0.42-1.75,0.75-2.59s0.74-1.66,1.22-2.43c0.48-0.77,1.04-1.44,1.68-2.03 s1.35-1.04,2.13-1.39c0.78-0.34,1.65-0.51,2.58-0.51c0.8,0,1.54,0.12,2.21,0.37c0.68,0.25,1.26,0.58,1.74,1.02 c0.48,0.43,0.86,0.95,1.13,1.54c0.27,0.6,0.41,1.24,0.41,1.92c0,0.48-0.06,0.95-0.19,1.41c-0.12,0.46-0.31,0.88-0.56,1.25 c-0.25,0.37-0.54,0.67-0.89,0.89s-0.74,0.34-1.18,0.34c-0.66,0-1.09-0.17-1.29-0.53c-0.2-0.35-0.3-0.83-0.3-1.45 c0-0.25,0.01-0.52,0.03-0.8c0.02-0.28,0.03-0.53,0.03-0.76c0-0.34-0.04-0.62-0.11-0.84s-0.22-0.34-0.46-0.34 c-0.57,0-1.06,0.14-1.47,0.41c-0.41,0.27-0.75,0.63-1.04,1.07c-0.29,0.44-0.51,0.94-0.68,1.49c-0.17,0.55-0.3,1.1-0.4,1.65 c-0.1,0.55-0.16,1.07-0.19,1.56s-0.04,0.91-0.04,1.25c0,0.5,0.04,1.03,0.14,1.58c0.09,0.54,0.26,1.05,0.51,1.5s0.6,0.83,1.03,1.13 s0.99,0.45,1.68,0.45c0.67,0,1.41-0.21,2.23-0.62s1.63-0.93,2.45-1.56c0.82-0.63,1.6-1.32,2.34-2.08s1.38-1.47,1.91-2.14l1.45,2.44 c-1.05,1.5-2.18,2.83-3.4,4.01c-0.52,0.5-1.08,0.99-1.69,1.47c-0.61,0.48-1.25,0.9-1.91,1.27c-0.67,0.37-1.36,0.67-2.08,0.9 C423.76,361.67,423.03,361.79,422.29,361.79z"></path>
    <path d="M439.17,361.79c-1.32,0-2.47-0.24-3.45-0.71c-0.99-0.48-1.81-1.12-2.47-1.92s-1.15-1.74-1.48-2.79 c-0.33-1.06-0.49-2.17-0.49-3.33c0-0.78,0.08-1.61,0.23-2.49c0.15-0.88,0.39-1.73,0.7-2.57c0.31-0.84,0.71-1.64,1.19-2.4 c0.48-0.76,1.03-1.43,1.67-2.02c0.64-0.58,1.35-1.04,2.14-1.39c0.79-0.34,1.67-0.51,2.63-0.51c0.78,0,1.51,0.12,2.18,0.38 s1.26,0.61,1.75,1.06c0.5,0.46,0.89,1,1.17,1.65c0.28,0.64,0.42,1.37,0.42,2.16c0,0.87-0.21,1.74-0.64,2.6 c-0.43,0.87-1.02,1.69-1.77,2.46s-1.66,1.46-2.7,2.06s-2.17,1.07-3.39,1.41c0.21,0.38,0.42,0.69,0.62,0.94s0.41,0.45,0.62,0.59 c0.21,0.14,0.43,0.24,0.66,0.29c0.23,0.06,0.48,0.08,0.75,0.08c0.84,0,1.72-0.17,2.66-0.5c0.93-0.34,1.84-0.76,2.72-1.26 s1.71-1.05,2.5-1.65c0.78-0.59,1.45-1.16,1.99-1.69l2.71,2.81c-1.23,1.27-2.54,2.4-3.93,3.38c-0.6,0.42-1.25,0.83-1.94,1.24 c-0.69,0.41-1.42,0.77-2.18,1.08c-0.76,0.31-1.55,0.57-2.37,0.76C440.84,361.69,440.01,361.79,439.17,361.79z M436.38,351.92 c0.5,0,1.05-0.13,1.65-0.39c0.59-0.26,1.15-0.59,1.66-1c0.51-0.41,0.94-0.85,1.29-1.32c0.35-0.48,0.53-0.94,0.53-1.39 c0-0.63-0.12-1.15-0.35-1.55c-0.23-0.41-0.51-0.61-0.85-0.61c-0.6,0-1.12,0.11-1.54,0.34c-0.43,0.22-0.78,0.51-1.07,0.87 c-0.29,0.36-0.52,0.76-0.69,1.22c-0.18,0.46-0.31,0.91-0.4,1.38c-0.09,0.46-0.15,0.91-0.18,1.34 C436.39,351.24,436.38,351.61,436.38,351.92z"></path>
  </g>
  <g id="logomark" transform="matrix(1, 0, 0, 1, -85.120003, -131.300003)">
    <title>logomark</title>
    <g>
      <title>blue</title>
      <path class="blue" d="M 130.03 336.72 L 127.38 350.11 C 126.65 353.81 116.39 351.4 117.04 348.1 L 119.11 337.63 C 116.79 337.78 114.47 337.89 112.14 337.95 L 114.22 355.24 C 114.38 356.51 114.51 356.76 114.55 356.8 C 114.78 357.06 116.04 357.56 116.51 357.75 C 122.11 359.95 132.01 361.22 143.68 361.22 C 147.46 361.22 151.26 361.09 154.74 360.84 C 156.32 360.72 157.84 360.59 159.26 360.43 C 169.58 359.26 173.11 357.41 173.71 356.71 L 176.66 332.19 C 161.12 332.75 145.57 335.17 130.03 336.72 Z">
        <title>Path</title>
      </path>
    </g>
    <g>
      <title>yellow</title>
      <path class="yellow" d="M149.7,237.45l-6.56,33.12c1.41-0.17,2.83-0.33,4.24-0.5c0.9-0.1,1.79-0.21,2.69-0.31
        c2.31-0.27,4.62-0.54,6.93-0.78c1.44-0.15,2.87-0.3,4.31-0.43c0.6-0.06,1.2-0.12,1.8-0.17c0.84-0.08,1.67-0.15,2.5-0.22
        c2.11-0.17,4.22-0.33,6.33-0.45c0.55-0.04,1.09-0.07,1.64-0.09c0.79-0.05,1.59-0.08,2.38-0.11c1.54-0.06,3.08-0.11,4.62-0.13
        c1.3-0.02,2.6-0.02,3.89-0.01l3.89-32.27C175.47,234.65,162.59,235.96,149.7,237.45z"></path>
      <path class="yellow" d="M100.43,240.85l3.92,32.47c1.72,0.03,3.43,0.03,5.15,0c0.46-0.01,0.92-0.02,1.37-0.03
        c0.65-0.01,1.3-0.03,1.95-0.06c0.18,0,0.37-0.01,0.55-0.02c0.29-0.01,0.58-0.02,0.87-0.03c0.57-0.02,1.15-0.05,1.73-0.08
        c0.13,0,0.26-0.01,0.39-0.02h0.06c1.03-0.05,2.06-0.11,3.1-0.18c1.58-0.1,3.15-0.22,4.73-0.35c0.89-0.08,1.78-0.15,2.67-0.23
        c0.04,0,0.08-0.01,0.12-0.01c0.05,0,0.1-0.01,0.15-0.01c0.6-0.06,1.2-0.12,1.8-0.18c1.05-0.1,2.11-0.21,3.16-0.32l6.55-33.07
        C125.95,240.19,113.19,241.4,100.43,240.85z"></path>
    </g>
    <g class="green">
      <title>green</title>
      <path d="M178.35,299.78c-0.57,0.01-1.15,0.03-1.72,0.06c-0.6,0.01-1.2,0.04-1.8,0.07c-0.84,0.03-1.67,0.08-2.51,0.13 c-0.92,0.05-1.83,0.11-2.75,0.17c-1.84,0.12-3.68,0.27-5.52,0.43c-0.91,0.09-1.82,0.17-2.73,0.26c-1.05,0.09-2.1,0.2-3.15,0.31 c-1.21,0.13-2.43,0.26-3.64,0.39c-0.18,0.02-0.36,0.04-0.55,0.06l-1.83,0.21c-0.8,0.09-1.59,0.18-2.39,0.27 c-1.59,0.18-3.18,0.37-4.76,0.56c-0.98,0.11-1.95,0.23-2.92,0.34c-1.41,0.16-2.82,0.33-4.23,0.49c-0.42,0.04-0.85,0.09-1.27,0.14 l-6.06,30.6l-0.49,2.45c15.54-1.55,31.09-3.97,46.63-4.53l0.29-2.41l3.62-30.05C179.83,299.74,179.09,299.76,178.35,299.78z"></path>
      <path d="M116.42,305.43c-2.73,0.14-5.45,0.23-8.17,0.25l3.6,29.88l0.29,2.39c2.33-0.06,4.65-0.17,6.97-0.32 l0.19-0.93l0.29-1.5h0.01l6.02-30.41c-2.36,0.2-4.73,0.38-7.09,0.52C117.83,305.36,117.12,305.4,116.42,305.43z"></path>
    </g>
    <g class="red">
      <title>red</title>
      <path d="M180.58,267.38c-1.54,0.02-3.08,0.07-4.62,0.13c-0.79,0.03-1.59,0.06-2.38,0.11 c-0.55,0.02-1.09,0.05-1.64,0.09c-2.11,0.12-4.22,0.28-6.33,0.45c-0.83,0.07-1.66,0.14-2.5,0.22c-0.6,0.05-1.2,0.11-1.8,0.17 c-1.44,0.13-2.87,0.28-4.31,0.43c-2.31,0.24-4.62,0.51-6.93,0.78c-0.9,0.1-1.79,0.21-2.69,0.31c-1.41,0.17-2.83,0.33-4.24,0.5 l-6.56,33.1c0.42-0.05,0.85-0.1,1.27-0.14c1.41-0.16,2.82-0.33,4.23-0.49c0.97-0.11,1.94-0.23,2.92-0.34 c1.58-0.19,3.17-0.38,4.76-0.56c0.8-0.09,1.59-0.18,2.39-0.27l1.83-0.21c0.19-0.02,0.37-0.04,0.55-0.06 c1.21-0.13,2.43-0.26,3.64-0.39c1.05-0.11,2.1-0.22,3.15-0.31c0.91-0.09,1.82-0.17,2.73-0.26c1.84-0.16,3.68-0.31,5.52-0.43 c0.92-0.06,1.83-0.12,2.75-0.17c0.84-0.05,1.67-0.1,2.51-0.13c0.6-0.03,1.2-0.06,1.8-0.07c0.57-0.03,1.15-0.05,1.72-0.06 c0.74-0.02,1.48-0.04,2.22-0.05l3.9-32.36C183.18,267.36,181.88,267.36,180.58,267.38z"></path>
      <path d="M127.19,272.3c-0.05,0-0.1,0.01-0.15,0.01c-0.04,0-0.08,0.01-0.12,0.01c-0.89,0.08-1.78,0.15-2.67,0.23 c-1.58,0.13-3.15,0.25-4.73,0.35c-1.04,0.07-2.07,0.13-3.1,0.18h-0.06c-0.13,0.01-0.26,0.02-0.39,0.02 c-0.58,0.03-1.16,0.06-1.73,0.08c-0.29,0.01-0.58,0.02-0.87,0.03c-0.18,0.01-0.37,0.02-0.55,0.02c-0.65,0.03-1.3,0.05-1.95,0.06 c-0.45,0.01-0.91,0.02-1.37,0.03c-1.72,0.03-3.43,0.03-5.15,0l3.9,32.36c2.72-0.02,5.44-0.11,8.17-0.25 c0.7-0.03,1.41-0.07,2.11-0.12c2.36-0.14,4.73-0.32,7.09-0.52l6.53-32.99c-1.05,0.11-2.11,0.22-3.16,0.32 C128.39,272.18,127.79,272.24,127.19,272.3z"></path>
    </g>
    <path class="pink" d="M 194.72 211.5 L 192.34 211.5 L 154.75 211.5 L 155.3 208.92 L 160.69 183.34 L 220.01 171.1 L 217.99 161.3 L 151.79 174.96 L 151 178.68 C 150.87 178.99 150.77 179.35 150.68 179.78 L 144.55 208.92 L 144 211.5 L 95.78 211.5 L 93.4 211.5 C 91.59 211.5 90.12 212.97 90.12 214.78 L 90.12 221.72 C 90.12 223.04 90.91 224.18 92.04 224.69 C 92.3 224.87 92.59 225.03 92.9 225.15 C 93.75 225.48 93.61 225.12 93.73 226.09 L 109.4 356.12 C 109.8 359.47 110.83 360.46 114.34 362.01 C 125.07 366.75 147.64 366.65 159.81 365.28 C 170.02 364.13 177.86 361.61 178.52 357.61 L 194.29 226.82 C 194.45 225.52 194.4 225.43 194.72 225.33 L 194.73 225.33 C 196.54 225.33 198 223.87 198 222.06 L 198 214.78 C 198 212.97 196.53 211.5 194.72 211.5 Z M 191.8 227.43 L 176.16 357.27 C 175.65 359.98 168.68 361.88 159.54 362.91 C 158.12 363.07 156.57 363.21 154.92 363.32 C 142.7 364.2 125.06 363.81 115.59 360.07 C 112.58 358.88 112.09 358.43 111.74 355.54 L 96.16 226.29 C 96.14 226.15 96.13 226.03 96.11 225.93 C 96.09 225.73 96.08 225.61 96.1 225.54 C 96.15 225.38 96.38 225.45 97.03 225.45 L 140.4 225.45 C 140.69 225.45 140.89 225.44 141.03 225.44 C 141.41 225.44 141.31 225.54 141.16 226.3 L 138.7 238.73 L 132.15 271.8 L 125.62 304.79 L 119.6 335.2 L 119.59 335.2 L 119.3 336.7 L 119.11 337.63 L 117.04 348.1 C 116.39 351.4 126.65 353.81 127.38 350.11 L 130.03 336.72 L 130.52 334.27 L 136.58 303.67 L 143.14 270.57 L 149.7 237.45 L 151.87 226.48 C 152.1 225.33 151.84 225.45 152.97 225.45 L 190.51 225.45 C 192.32 225.45 192.02 225.66 191.8 227.43 Z M 195.5 216.71 L 195.5 217.1 L 195.5 218.31 L 195.5 221.7 L 195.5 222.06 C 195.5 222.33 195.36 222.57 195.14 222.71 C 195.02 222.79 194.88 222.83 194.73 222.83 L 194.54 222.83 L 93.39 222.48 C 93.25 222.48 93.11 222.44 93 222.37 C 92.77 222.24 92.62 222 92.62 221.72 L 92.62 221.7 L 92.62 218.32 L 92.62 217.08 L 92.62 216.63 L 92.62 214.78 C 92.62 214.35 92.97 214 93.4 214 L 97 214 L 97 215.36 L 97 217.1 L 97 218 L 99 218 L 99 217.1 L 99 215.36 L 99 214 L 101.38 214 L 101.38 215.36 L 101.38 217.1 L 101.38 218 L 103.38 218 L 103.38 217.1 L 103.38 215.36 L 103.38 214 L 105.76 214 L 105.76 215.36 L 105.76 217.1 L 105.76 218 L 107.76 218 L 107.76 217.1 L 107.76 215.36 L 107.76 214 L 110.14 214 L 110.14 215.36 L 110.14 217.1 L 110.14 218 L 112.14 218 L 112.14 217.1 L 112.14 215.36 L 112.14 214 L 114.52 214 L 114.52 215.36 L 114.52 217.1 L 114.52 218 L 116.52 218 L 116.52 217.1 L 116.52 215.36 L 116.52 214 L 118.9 214 L 118.9 215.36 L 118.9 217.1 L 118.9 218 L 120.9 218 L 120.9 217.1 L 120.9 215.36 L 120.9 214 L 123.29 214 L 123.29 215.36 L 123.29 217.1 L 123.29 218 L 125.29 218 L 125.29 217.1 L 125.29 215.36 L 125.29 214 L 127.67 214 L 127.67 215.36 L 127.67 217.1 L 127.67 218 L 129.67 218 L 129.67 217.1 L 129.67 215.36 L 129.67 214 L 132.05 214 L 132.05 215.36 L 132.05 217.1 L 132.05 218 L 134.05 218 L 134.05 217.1 L 134.05 215.36 L 134.05 214 L 136.43 214 L 136.43 215.36 L 136.43 217.1 L 136.43 218 L 138.43 218 L 138.43 217.1 L 138.43 215.36 L 138.43 214 L 140.81 214 L 140.81 215.36 L 140.81 217.1 L 140.81 218 L 142.81 218 L 142.81 217.1 L 142.81 215.36 L 142.81 214 L 145.19 214 L 145.19 215.36 L 145.19 217.1 L 145.19 218 L 147.19 218 L 147.19 217.1 L 147.19 215.36 L 147.19 214 L 149.57 214 L 149.57 215.36 L 149.57 217.1 L 149.57 218 L 151.57 218 L 151.57 217.1 L 151.57 215.36 L 151.57 214 L 153.95 214 L 153.95 215.36 L 153.95 217.1 L 153.95 218 L 155.95 218 L 155.95 217.1 L 155.95 215.36 L 155.95 214 L 158.33 214 L 158.33 215.36 L 158.33 217.1 L 158.33 218 L 160.33 218 L 160.33 217.1 L 160.33 215.36 L 160.33 214 L 162.71 214 L 162.71 215.36 L 162.71 217.1 L 162.71 218 L 164.71 218 L 164.71 217.1 L 164.71 215.36 L 164.71 214 L 167.1 214 L 167.1 215.36 L 167.1 217.1 L 167.1 218 L 169.1 218 L 169.1 217.1 L 169.1 215.36 L 169.1 214 L 171.48 214 L 171.48 215.36 L 171.48 217.1 L 171.48 218 L 173.48 218 L 173.48 217.1 L 173.48 215.36 L 173.48 214 L 175.86 214 L 175.86 215.36 L 175.86 217.1 L 175.86 218 L 177.86 218 L 177.86 217.1 L 177.86 215.36 L 177.86 214 L 180.24 214 L 180.24 215.36 L 180.24 217.1 L 180.24 218 L 182.24 218 L 182.24 217.1 L 182.24 215.36 L 182.24 214 L 184.62 214 L 184.62 215.36 L 184.62 217.1 L 184.62 218 L 186.62 218 L 186.62 217.1 L 186.62 215.36 L 186.62 214 L 189 214 L 189 215.36 L 189 217.1 L 189 218 L 191 218 L 191 217.1 L 191 215.36 L 191 214 L 194.72 214 C 195.15 214 195.5 214.35 195.5 214.78 L 195.5 216.71 Z">
      <title>outline</title>
    </path>
  </g>
</svg>
